<svg>
  <symbol id="react" xmlns="http://www.w3.org/2000/svg" fill="currentColor" viewBox="0 0 24 24"><path d="M14.23 12.004a2.236 2.236 0 0 1-2.235 2.236 2.236 2.236 0 0 1-2.236-2.236 2.236 2.236 0 0 1 2.235-2.236 2.236 2.236 0 0 1 2.236 2.236zm2.648-10.69c-1.346 0-3.107.96-4.888 2.622-1.78-1.653-3.542-2.602-4.887-2.602-.41 0-.783.093-1.106.278-1.375.793-1.683 3.264-.973 6.365C1.98 8.917 0 10.42 0 12.004c0 1.59 1.99 3.097 5.043 4.03-.704 3.113-.39 5.588.988 6.38.32.187.69.275 1.102.275 1.345 0 3.107-.96 4.888-2.624 1.78 1.654 3.542 2.603 4.887 2.603.41 0 .783-.09 1.106-.275 1.374-.792 1.683-3.263.973-6.365C22.02 15.096 24 13.59 24 12.004c0-1.59-1.99-3.097-5.043-4.032.704-3.11.39-5.587-.988-6.38a2.167 2.167 0 0 0-1.092-.278zm-.005 1.09v.006c.225 0 .406.044.558.127.666.382.955 1.835.73 3.704-.054.46-.142.945-.25 1.44a23.476 23.476 0 0 0-3.107-.534A23.892 23.892 0 0 0 12.769 4.7c1.592-1.48 3.087-2.292 4.105-2.295zm-9.77.02c1.012 0 2.514.808 4.11 2.28-.686.72-1.37 1.537-2.02 2.442a22.73 22.73 0 0 0-3.113.538 15.02 15.02 0 0 1-.254-1.42c-.23-1.868.054-3.32.714-3.707.19-.09.4-.127.563-.132zm4.882 3.05c.455.468.91.992 1.36 1.564-.44-.02-.89-.034-1.345-.034-.46 0-.915.01-1.36.034.44-.572.895-1.096 1.345-1.565zM12 8.1c.74 0 1.477.034 2.202.093.406.582.802 1.203 1.183 1.86.372.64.71 1.29 1.018 1.946-.308.655-.646 1.31-1.013 1.95-.38.66-.773 1.288-1.18 1.87a25.64 25.64 0 0 1-4.412.005 26.64 26.64 0 0 1-1.183-1.86c-.372-.64-.71-1.29-1.018-1.946a25.17 25.17 0 0 1 1.013-1.954c.38-.66.773-1.286 1.18-1.868A25.245 25.245 0 0 1 12 8.098zm-3.635.254c-.24.377-.48.763-.704 1.16-.225.39-.435.782-.635 1.174-.265-.656-.49-1.31-.676-1.947.64-.15 1.315-.283 2.015-.386zm7.26 0c.695.103 1.365.23 2.006.387-.18.632-.405 1.282-.66 1.933a25.952 25.952 0 0 0-1.345-2.32zm3.063.675c.484.15.944.317 1.375.498 1.732.74 2.852 1.708 2.852 2.476-.005.768-1.125 1.74-2.857 2.475-.42.18-.88.342-1.355.493a23.966 23.966 0 0 0-1.1-2.98c.45-1.017.81-2.01 1.085-2.964zm-13.395.004c.278.96.645 1.957 1.1 2.98a23.142 23.142 0 0 0-1.086 2.964c-.484-.15-.944-.318-1.37-.5-1.732-.737-2.852-1.706-2.852-2.474 0-.768 1.12-1.742 2.852-2.476.42-.18.88-.342 1.356-.494zm11.678 4.28c.265.657.49 1.312.676 1.948-.64.157-1.316.29-2.016.39a25.819 25.819 0 0 0 1.341-2.338zm-9.945.02c.2.392.41.783.64 1.175.23.39.465.772.705 1.143a22.005 22.005 0 0 1-2.006-.386c.18-.63.406-1.282.66-1.933zM17.92 16.32c.112.493.2.968.254 1.423.23 1.868-.054 3.32-.714 3.708-.147.09-.338.128-.563.128-1.012 0-2.514-.807-4.11-2.28.686-.72 1.37-1.536 2.02-2.44 1.107-.118 2.154-.3 3.113-.54zm-11.83.01c.96.234 2.006.415 3.107.532.66.905 1.345 1.727 2.035 2.446-1.595 1.483-3.092 2.295-4.11 2.295a1.185 1.185 0 0 1-.553-.132c-.666-.38-.955-1.834-.73-3.703.054-.46.142-.944.25-1.438zm4.56.64c.44.02.89.034 1.345.034.46 0 .915-.01 1.36-.034-.44.572-.895 1.095-1.345 1.565-.455-.47-.91-.993-1.36-1.565z"/></symbol>
  <symbol id="remix" xmlns="http://www.w3.org/2000/svg" viewBox="0 0 24 24"><path d="M21.511 18.508c.216 2.773.216 4.073.216 5.492H15.31c0-.309.006-.592.011-.878.018-.892.036-1.821-.109-3.698-.19-2.747-1.374-3.358-3.55-3.358H1.574v-5H11.97c2.748 0 4.122-.835 4.122-3.049 0-1.946-1.374-3.125-4.122-3.125H1.573V0h11.541c6.221 0 9.313 2.938 9.313 7.632 0 3.511-2.176 5.8-5.114 6.182 2.48.497 3.93 1.909 4.198 4.694ZM1.573 24v-3.727h6.784c1.133 0 1.379.84 1.379 1.342V24Z"/></symbol>
  <symbol id="tailwindcss" xmlns="http://www.w3.org/2000/svg" fill="currentColor" viewBox="0 0 24 24"><path d="M12.001 4.8c-3.2 0-5.2 1.6-6 4.8 1.2-1.6 2.6-2.2 4.2-1.8.913.228 1.565.89 2.288 1.624C13.666 10.618 15.027 12 18.001 12c3.2 0 5.2-1.6 6-4.8-1.2 1.6-2.6 2.2-4.2 1.8-.913-.228-1.565-.89-2.288-1.624C16.337 6.182 14.976 4.8 12.001 4.8zm-6 7.2c-3.2 0-5.2 1.6-6 4.8 1.2-1.6 2.6-2.2 4.2-1.8.913.228 1.565.89 2.288 1.624 1.177 1.194 2.538 2.576 5.512 2.576 3.2 0 5.2-1.6 6-4.8-1.2 1.6-2.6 2.2-4.2 1.8-.913-.228-1.565-.89-2.288-1.624C10.337 13.382 8.976 12 6.001 12z"/></symbol>
  <symbol id="vite" xmlns="http://www.w3.org/2000/svg" fill="currentColor" viewBox="0 0 24 24"><path d="m8.286 10.578.512-8.657a.306.306 0 0 1 .247-.282L17.377.006a.306.306 0 0 1 .353.385l-1.558 5.403a.306.306 0 0 0 .352.385l2.388-.46a.306.306 0 0 1 .332.438l-6.79 13.55-.123.19a.294.294 0 0 1-.252.14c-.177 0-.35-.152-.305-.369l1.095-5.301a.306.306 0 0 0-.388-.355l-1.433.435a.306.306 0 0 1-.389-.354l.69-3.375a.306.306 0 0 0-.37-.36l-2.32.536a.306.306 0 0 1-.374-.316zm14.976-7.926L17.284 3.74l-.544 1.887 2.077-.4a.8.8 0 0 1 .84.369.8.8 0 0 1 .034.783L12.9 19.93l-.013.025-.015.023-.122.19a.801.801 0 0 1-.672.37.826.826 0 0 1-.634-.302.8.8 0 0 1-.16-.67l1.029-4.981-1.12.34a.81.81 0 0 1-.86-.262.802.802 0 0 1-.165-.67l.63-3.08-2.027.468a.808.808 0 0 1-.768-.233.81.81 0 0 1-.217-.6l.389-6.57-7.44-1.33a.612.612 0 0 0-.64.906L11.58 23.691a.612.612 0 0 0 1.066-.004l11.26-20.135a.612.612 0 0 0-.644-.9z"/></symbol>
  <symbol id="drizzle-orm" xmlns="http://www.w3.org/2000/svg" fill="currentColor" viewBox="0 0 24 24"><path d="M5.353 11.823a1.036 1.036 0 0 0-.395-1.422 1.063 1.063 0 0 0-1.437.399L.138 16.702a1.035 1.035 0 0 0 .395 1.422 1.063 1.063 0 0 0 1.437-.398l3.383-5.903Zm11.216 0a1.036 1.036 0 0 0-.394-1.422 1.064 1.064 0 0 0-1.438.399l-3.382 5.902a1.036 1.036 0 0 0 .394 1.422c.506.283 1.15.104 1.438-.398l3.382-5.903Zm7.293-4.525a1.036 1.036 0 0 0-.395-1.422 1.062 1.062 0 0 0-1.437.399l-3.383 5.902a1.036 1.036 0 0 0 .395 1.422 1.063 1.063 0 0 0 1.437-.399l3.383-5.902Zm-11.219 0a1.035 1.035 0 0 0-.394-1.422 1.064 1.064 0 0 0-1.438.398l-3.382 5.903a1.036 1.036 0 0 0 .394 1.422c.506.282 1.15.104 1.438-.399l3.382-5.902Z"/></symbol>
  <symbol id="postgresql" xmlns="http://www.w3.org/2000/svg" fill="currentColor" viewBox="0 0 24 24"><path d="M23.56 14.723a.527.527 0 0 0-.057-.12c-.139-.262-.477-.341-1.007-.231-1.654.34-2.294.13-2.526-.02 1.342-2.048 2.445-4.522 3.041-6.83.272-1.05.798-3.523.122-4.73a1.564 1.564 0 0 0-.15-.236C21.692.91 19.8.025 17.51.001c-1.495-.016-2.77.346-3.116.479a9.449 9.449 0 0 0-.516-.082 8.044 8.044 0 0 0-1.312-.127c-1.182-.019-2.203.264-3.05.84C8.66.79 4.729-.534 2.296 1.19.935 2.153.309 3.873.43 6.304c.041.818.507 3.334 1.243 5.744.46 1.506.938 2.702 1.433 3.582.553.994 1.126 1.593 1.714 1.79.448.148 1.133.143 1.858-.729a55.982 55.982 0 0 1 1.945-2.206c.435.235.906.362 1.39.377a.057.057 0 0 0 0 .004 11.031 11.031 0 0 0-.247.305c-.339.43-.41.52-1.5.745-.31.064-1.134.233-1.146.811a.591.591 0 0 0 .091.327c.227.423.922.61 1.015.633 1.335.333 2.505.092 3.372-.679-.017 2.231.077 4.418.345 5.088.221.553.762 1.904 2.47 1.904.25 0 .526-.03.829-.094 1.782-.382 2.556-1.17 2.855-2.906.15-.87.402-2.875.539-4.101.017-.07.036-.12.057-.136 0 0 .07-.048.427.03a.367.367 0 0 0 .044.007l.254.022.015.001c.847.039 1.911-.142 2.531-.43.644-.3 1.806-1.033 1.595-1.67zM2.37 11.876c-.744-2.435-1.178-4.885-1.212-5.571-.109-2.172.417-3.683 1.562-4.493 1.837-1.299 4.84-.54 6.108-.13l-.01.01C6.795 3.734 6.843 7.226 6.85 7.44c0 .082.006.199.016.36.034.586.1 1.68-.074 2.918-.16 1.15.194 2.276.973 3.089.08.084.165.163.252.237-.347.371-1.1 1.193-1.903 2.158-.568.682-.96.551-1.088.508-.392-.13-.813-.587-1.239-1.322-.48-.839-.963-2.032-1.415-3.512zm6.007 5.088a1.626 1.626 0 0 1-.432-.178c.089-.039.237-.09.483-.14 1.284-.265 1.482-.451 1.915-1 .099-.127.211-.27.367-.443a.355.355 0 0 0 .074-.13c.17-.151.272-.11.436-.042.156.065.308.26.37.475.03.102.062.295-.045.445-.904 1.266-2.222 1.25-3.168 1.013zm2.094-3.988-.052.14c-.133.357-.257.689-.334 1.004-.667-.002-1.317-.288-1.81-.803-.628-.655-.913-1.566-.783-2.5.183-1.308.116-2.447.08-3.059l-.013-.22c.296-.262 1.666-.996 2.643-.772.446.102.718.406.83.928.585 2.704.078 3.83-.33 4.736a8.784 8.784 0 0 0-.23.546zm7.364 4.572c-.017.177-.036.376-.062.596l-.146.438a.355.355 0 0 0-.018.108c-.006.475-.054.649-.115.87-.064.229-.135.488-.18 1.057-.11 1.414-.878 2.227-2.417 2.556-1.515.325-1.784-.496-2.02-1.221a6.582 6.582 0 0 0-.078-.227c-.215-.586-.19-1.412-.157-2.555.016-.561-.025-1.901-.33-2.646.004-.293.01-.591.019-.892a.353.353 0 0 0-.016-.113 1.493 1.493 0 0 0-.044-.208c-.122-.428-.42-.786-.78-.935-.142-.059-.403-.167-.717-.087.067-.276.183-.587.309-.925l.053-.142c.06-.16.134-.325.213-.5.426-.948 1.01-2.246.376-5.178-.237-1.098-1.03-1.634-2.232-1.51-.72.075-1.38.366-1.709.532a5.672 5.672 0 0 0-.196.104c.092-1.106.439-3.174 1.736-4.482a4.03 4.03 0 0 1 .303-.276.353.353 0 0 0 .145-.064c.752-.57 1.695-.85 2.802-.833.41.007.802.034 1.174.081 1.94.355 3.244 1.447 4.036 2.383.814.962 1.255 1.931 1.431 2.454-1.323-.134-2.223.127-2.68.78-.992 1.418.544 4.172 1.282 5.496.135.242.252.452.289.54.24.583.551.972.778 1.256.07.087.138.171.189.245-.4.116-1.12.383-1.055 1.717-.013.156-.043.447-.084.815-.046.208-.07.46-.1.766zm.89-1.621c-.04-.832.27-.919.597-1.01a2.857 2.857 0 0 0 .135-.041 1.202 1.202 0 0 0 .134.103c.57.376 1.583.421 3.007.134-.202.177-.519.4-.953.601-.41.19-1.096.333-1.747.364-.72.034-1.086-.08-1.173-.151zm.57-9.271c-.006.35-.054.669-.105 1.001-.055.358-.112.728-.127 1.177-.014.436.04.89.093 1.33.107.887.216 1.8-.207 2.701a3.527 3.527 0 0 1-.188-.385 7.57 7.57 0 0 0-.325-.617c-.616-1.104-2.057-3.69-1.32-4.744.38-.543 1.342-.566 2.179-.463zm.228 7.013a12.376 12.376 0 0 0-.085-.107l-.035-.044c.726-1.2.584-2.387.457-3.439-.052-.432-.1-.84-.088-1.222.013-.407.066-.755.118-1.092.064-.415.13-.844.111-1.35a.559.559 0 0 0 .012-.19c-.046-.486-.6-1.938-1.73-3.253a7.803 7.803 0 0 0-2.688-2.04A9.251 9.251 0 0 1 17.62.746c2.052.046 3.675.814 4.824 2.283a.908.908 0 0 1 .067.1c.723 1.356-.276 6.275-2.987 10.54zm-8.816-6.116c-.025.18-.31.423-.621.423a.582.582 0 0 1-.081-.006.797.797 0 0 1-.506-.315c-.046-.06-.12-.178-.106-.285a.223.223 0 0 1 .093-.149c.118-.089.352-.122.61-.086.316.044.642.193.61.418zm7.93-.411c.011.08-.049.2-.153.31a.722.722 0 0 1-.408.223.546.546 0 0 1-.075.005c-.293 0-.541-.234-.56-.371-.024-.177.264-.31.56-.352.298-.042.612.009.636.185z"/></symbol>
  <symbol id="hono" xmlns="http://www.w3.org/2000/svg" fill="currentColor" viewBox="0 0 24 24"><path d="M12.445.002a45.529 45.529 0 0 0-5.252 8.146 8.595 8.595 0 0 1-.555-.53 27.796 27.796 0 0 0-1.205-1.542 8.762 8.762 0 0 0-1.251 2.12 20.743 20.743 0 0 0-1.448 5.88 8.867 8.867 0 0 0 .338 3.468c1.312 3.48 3.794 5.593 7.445 6.337 3.055.438 5.755-.333 8.097-2.312 2.677-2.59 3.359-5.634 2.047-9.132a33.287 33.287 0 0 0-2.988-5.59A91.34 91.34 0 0 0 12.615.053a.216.216 0 0 0-.17-.051Zm-.336 3.906a50.93 50.93 0 0 1 4.794 6.552c.448.767.817 1.57 1.108 2.41.606 2.386-.044 4.354-1.951 5.904-1.845 1.298-3.87 1.683-6.072 1.156-2.376-.737-3.75-2.335-4.121-4.794a5.107 5.107 0 0 1 .242-2.266c.358-.908.79-1.774 1.3-2.601l1.446-2.121a397.33 397.33 0 0 0 3.254-4.24Z"/></symbol>
  <symbol id="vercel" xmlns="http://www.w3.org/2000/svg" viewBox="0 0 24 24"><path d="M24 22.525H0l12-21.05 12 21.05z"/></symbol>
  <symbol id="nodejs" xmlns="http://www.w3.org/2000/svg" fill="currentColor" viewBox="0 0 24 24"><path d="M11.998 24c-.321 0-.641-.084-.922-.247L8.14 22.016c-.438-.245-.224-.332-.08-.383.585-.203.703-.25 1.328-.604.065-.037.151-.023.218.017l2.256 1.339a.29.29 0 0 0 .272 0l8.795-5.076a.277.277 0 0 0 .134-.238V6.921a.283.283 0 0 0-.137-.242l-8.791-5.072a.278.278 0 0 0-.271 0L3.075 6.68a.284.284 0 0 0-.139.241v10.15a.27.27 0 0 0 .139.235l2.409 1.392c1.307.654 2.108-.116 2.108-.89V7.787c0-.142.114-.253.256-.253h1.115c.139 0 .255.112.255.253v10.021c0 1.745-.95 2.745-2.604 2.745-.508 0-.909 0-2.026-.551L2.28 18.675a1.856 1.856 0 0 1-.922-1.604V6.921c0-.659.353-1.275.922-1.603L11.075.236a1.925 1.925 0 0 1 1.848 0l8.794 5.082c.57.329.924.944.924 1.603v10.15a1.86 1.86 0 0 1-.924 1.604l-8.794 5.078c-.28.163-.599.247-.925.247zm7.101-10.007c0-1.9-1.284-2.406-3.987-2.763-2.731-.361-3.009-.548-3.009-1.187 0-.528.235-1.233 2.258-1.233 1.807 0 2.473.389 2.747 1.607a.254.254 0 0 0 .247.199h1.141a.26.26 0 0 0 .186-.081.257.257 0 0 0 .067-.196c-.177-2.098-1.571-3.076-4.388-3.076-2.508 0-4.004 1.058-4.004 2.833 0 1.925 1.488 2.457 3.895 2.695 2.88.282 3.103.703 3.103 1.269 0 .983-.789 1.402-2.642 1.402-2.327 0-2.839-.584-3.011-1.742a.255.255 0 0 0-.253-.215h-1.137a.252.252 0 0 0-.254.253c0 1.482.806 3.248 4.655 3.248 2.788.001 4.386-1.096 4.386-3.013z"/></symbol>
  <symbol id="typescript" xmlns="http://www.w3.org/2000/svg" fill="currentColor" viewBox="0 0 24 24"><path d="M1.125 0C.502 0 0 .502 0 1.125v21.75C0 23.498.502 24 1.125 24h21.75c.623 0 1.125-.502 1.125-1.125V1.125C24 .502 23.498 0 22.875 0zm17.363 9.75c.612 0 1.154.037 1.627.111a6.38 6.38 0 0 1 1.306.34v2.458a3.95 3.95 0 0 0-.643-.361 5.093 5.093 0 0 0-.717-.26 5.453 5.453 0 0 0-1.426-.2c-.3 0-.573.028-.819.086a2.1 2.1 0 0 0-.623.242c-.17.104-.3.229-.393.374a.888.888 0 0 0-.14.49c0 .196.053.373.156.529.104.156.252.304.443.444s.423.276.696.41c.273.135.582.274.926.416.47.197.892.407 1.266.628.374.222.695.473.963.753.268.279.472.598.614.957.142.359.214.776.214 1.253 0 .657-.125 1.21-.373 1.656a3.033 3.033 0 0 1-1.012 1.085 4.38 4.38 0 0 1-1.487.596c-.566.12-1.163.18-1.79.18a9.916 9.916 0 0 1-1.84-.164 5.544 5.544 0 0 1-1.512-.493v-2.63a5.033 5.033 0 0 0 3.237 1.2c.333 0 .624-.03.872-.09.249-.06.456-.144.623-.25.166-.108.29-.234.373-.38a1.023 1.023 0 0 0-.074-1.089 2.12 2.12 0 0 0-.537-.5 5.597 5.597 0 0 0-.807-.444 27.72 27.72 0 0 0-1.007-.436c-.918-.383-1.602-.852-2.053-1.405-.45-.553-.676-1.222-.676-2.005 0-.614.123-1.141.369-1.582.246-.441.58-.804 1.004-1.089a4.494 4.494 0 0 1 1.47-.629 7.536 7.536 0 0 1 1.77-.201zm-15.113.188h9.563v2.166H9.506v9.646H6.789v-9.646H3.375z"/></symbol>
</svg>
