<svg xmlns="http://www.w3.org/2000/svg">
  <defs>
    <symbol id="chrome" fill="#4285F4" viewBox="0 0 24 24">
      <path
        d="M12 0C8.21 0 4.831 1.757 2.632 4.501l3.953 6.848A5.454 5.454 0 0 1 12 6.545h10.691A12 12 0 0 0 12 0M1.931 5.47A11.94 11.94 0 0 0 0 12c0 6.012 4.42 10.991 10.189 11.864l3.953-6.847a5.45 5.45 0 0 1-6.865-2.29zm13.342 2.166a5.446 5.446 0 0 1 1.45 7.09l.002.001h-.002l-5.344 9.257q.309.015.621.016c6.627 0 12-5.373 12-12 0-1.54-.29-3.011-.818-4.364zM12 16.364a4.364 4.364 0 1 1 0-8.728 4.364 4.364 0 0 1 0 8.728"/>
    </symbol>
    <symbol id="firefox" fill="#FF7139" viewBox="0 0 24 24">
      <path
        d="M20.452 3.445a11 11 0 0 0-2.482-1.908C16.944.997 15.098.093 12.477.032q-1.1-.026-2.174.144c-.72.114-1.398.292-2.118.56-1.017.377-1.996.975-2.574 1.554.583-.349 1.476-.733 2.55-.992a10.1 10.1 0 0 1 3.729-.167c2.341.34 4.178 1.381 5.48 2.625a8 8 0 0 1 1.298 1.587c1.468 2.382 1.33 5.376.184 7.142-.85 1.312-2.67 2.544-4.37 2.53-.583-.023-1.438-.152-2.25-.566-2.629-1.343-3.021-4.688-1.118-6.306-.632-.136-1.82.13-2.646 1.363-.742 1.107-.7 2.816-.242 4.028a6.5 6.5 0 0 1-.59-1.895 7.7 7.7 0 0 1 .416-3.845A8.2 8.2 0 0 1 9.45 5.399c.896-1.069 1.908-1.72 2.75-2.005-.54-.471-1.411-.738-2.421-.767C8.31 2.583 6.327 3.061 4.7 4.41a8.2 8.2 0 0 0-1.976 2.414c-.455.836-.691 1.659-.697 1.678.122-1.445.704-2.994 1.248-4.055-.79.413-1.827 1.668-2.41 3.042C.095 9.37-.2 11.608.14 13.989c.966 5.668 5.9 9.982 11.843 9.982C18.62 23.971 24 18.591 24 11.956a11.93 11.93 0 0 0-3.548-8.511"/>
    </symbol>
    <symbol id="edge" fill="#0078D7" viewBox="0 0 24 24">
      <path
        d="M21.86 17.86q.14 0 .25.12.1.13.1.25t-.11.33l-.32.46-.43.53-.44.5q-.21.25-.38.42l-.22.23q-.58.53-1.34 1.04t-1.6.91q-.86.4-1.74.64t-1.67.24q-.9 0-1.69-.28-.8-.28-1.48-.78T9.57 21.3q-.53-.66-.92-1.44-.38-.77-.58-1.6t-.2-1.67q0-1 .32-1.96.33-.97.87-1.8.14.95.55 1.77t1.02 1.5q.6.68 1.38 1.21.78.54 1.64.9t1.77.56q.92.2 1.8.2 1.12 0 2.18-.24 1.06-.23 2.06-.72l.2-.1zm-15.5-1.27q0 1.1.27 2.15.27 1.06.78 2.03.51.96 1.24 1.77.74.82 1.66 1.4-1.47-.2-2.8-.74-1.33-.55-2.48-1.37-1.15-.83-2.08-1.9-.92-1.07-1.58-2.33T.36 14.94Q0 13.54 0 12.06q0-.81.32-1.49.31-.68.83-1.23.53-.55 1.2-.96.66-.4 1.35-.66.74-.27 1.5-.39.78-.12 1.55-.12.7 0 1.42.1.72.12 1.4.35t1.32.57q.63.35 1.16.83-.35 0-.7.07-.33.07-.65.23v-.02q-.63.28-1.2.74t-1.05 1.04-.87 1.26q-.38.67-.65 1.39-.27.71-.42 1.44-.15.72-.15 1.38M11.96.06q1.7 0 3.33.39 1.63.38 3.07 1.15 1.43.77 2.62 1.93 1.18 1.16 1.98 2.7.49.94.76 1.96.28 1 .28 2.08 0 .89-.23 1.7-.24.8-.69 1.48t-1.1 1.22q-.64.53-1.45.88-.54.24-1.11.36-.58.13-1.16.13-.42 0-.97-.03-.54-.03-1.1-.12-.55-.1-1.05-.28-.5-.19-.84-.5-.12-.09-.23-.24-.1-.16-.1-.33 0-.15.16-.35t.35-.5q.2-.28.36-.68t.16-.95q0-1.06-.4-1.96-.4-.91-1.06-1.64-.66-.74-1.52-1.28-.86-.55-1.79-.89-.84-.3-1.72-.44-.87-.14-1.76-.14-1.55 0-3.06.45T.94 7.55q.71-1.74 1.81-3.13 1.1-1.38 2.52-2.35Q6.68 1.1 8.37.58q1.7-.52 3.58-.52Z"/>
    </symbol>
    <symbol id="safari" fill="#006CFF" viewBox="0 0 24 24">
      <path
        d="M12 0A12 12 0 0 0 0 12a12 12 0 0 0 12 12 12 12 0 0 0 12-12A12 12 0 0 0 12 0m-.004.953h.006c.063 0 .113.05.113.113v1.842c0 .063-.05.113-.113.113h-.006a.11.11 0 0 1-.113-.113V1.066c0-.063.05-.113.113-.113m-.941.041a.115.115 0 0 1 .11.104l.077.918a.11.11 0 0 1-.101.12h-.01a.11.11 0 0 1-.12-.1l-.08-.919a.11.11 0 0 1 .102-.12h.01zm1.892 0h.018a.113.113 0 0 1 .103.121l-.08.92a.11.11 0 0 1-.12.102h-.009a.11.11 0 0 1-.101-.121l.078-.92a.11.11 0 0 1 .111-.102m-2.838.123a.11.11 0 0 1 .106.092l.32 1.818c.01.06-.03.119-.09.13l-.01.001a.11.11 0 0 1-.128-.09l-.32-1.818a.11.11 0 0 1 .09-.129l.01-.002zm3.784.002h.021l.008.002c.061.01.102.07.092.131l-.32 1.814a.11.11 0 0 1-.132.09h-.005a.113.113 0 0 1-.092-.13l.32-1.815a.11.11 0 0 1 .108-.092m-4.715.203c.048.002.09.035.103.084l.239.893a.11.11 0 0 1-.079.139l-.005.001a.114.114 0 0 1-.14-.08l-.237-.894a.11.11 0 0 1 .078-.137l.006-.002a.1.1 0 0 1 .035-.004m5.644 0a.1.1 0 0 1 .033.004l.006.002c.06.016.097.079.08.139l-.24.892a.11.11 0 0 1-.137.08l-.005-.002a.114.114 0 0 1-.08-.138l.24-.893a.11.11 0 0 1 .103-.084m-6.562.285a.11.11 0 0 1 .107.073L9 3.42a.107.107 0 0 1-.064.139l-.012.005a.11.11 0 0 1-.14-.066L8.15 1.76a.11.11 0 0 1 .065-.14l.014-.005a.1.1 0 0 1 .03-.008zm7.469.002q.021 0 .042.006l.012.006c.057.02.087.082.067.139l-.633 1.738a.11.11 0 0 1-.14.066l-.013-.003A.11.11 0 0 1 15 3.42l.633-1.738a.11.11 0 0 1 .096-.073m-8.352.366a.11.11 0 0 1 .105.064l.393.838a.11.11 0 0 1-.055.148l-.008.004a.11.11 0 0 1-.146-.054l-.395-.838a.11.11 0 0 1 .055-.149l.008-.004a.1.1 0 0 1 .043-.01zm9.246 0a.1.1 0 0 1 .043.01l.006.003a.11.11 0 0 1 .053.149l-.391.838a.11.11 0 0 1-.148.054l-.006-.002a.11.11 0 0 1-.055-.148l.393-.84a.11.11 0 0 1 .105-.064m-10.092.44c.04-.002.08.018.102.056l.922 1.597a.113.113 0 0 1-.041.155l-.006.002a.113.113 0 0 1-.154-.041l-.922-1.598a.113.113 0 0 1 .04-.154l.007-.002a.1.1 0 0 1 .052-.016zm10.94.001a.1.1 0 0 1 .052.014l.004.002a.114.114 0 0 1 .041.156l-.923 1.596a.114.114 0 0 1-.157.04l-.004-.001a.11.11 0 0 1-.04-.155l.925-1.595a.11.11 0 0 1 .102-.057M5.729 2.93a.11.11 0 0 1 .093.047l.532.753a.114.114 0 0 1-.028.159l-.004.002a.114.114 0 0 1-.158-.028l-.531-.752a.114.114 0 0 1 .027-.158l.006-.002a.1.1 0 0 1 .063-.021m12.542 0a.1.1 0 0 1 .063.02l.006.003a.11.11 0 0 1 .027.156l-.531.756a.11.11 0 0 1-.156.028l-.006-.004a.11.11 0 0 1-.028-.157l.532-.755a.11.11 0 0 1 .093-.047m.747.578a.1.1 0 0 1 .08.027l.006.004c.047.04.053.111.013.158L17.932 5.11a.11.11 0 0 1-.157.016l-.005-.006a.11.11 0 0 1-.014-.156l1.185-1.414a.1.1 0 0 1 .077-.041zM4.984 3.51a.1.1 0 0 1 .077.039L6.244 4.96a.11.11 0 0 1-.014.158l-.003.004a.11.11 0 0 1-.159-.014L4.883 3.697a.11.11 0 0 1 .013-.158l.006-.004a.1.1 0 0 1 .082-.025m-.714.64q.042 0 .076.032l.658.66a.107.107 0 0 1 0 .152l-.01.01a.107.107 0 0 1-.152 0l-.66-.658a.11.11 0 0 1 0-.155l.01-.01a.1.1 0 0 1 .078-.03zm15.462 0q.043 0 .077.032l.007.007a.11.11 0 0 1 0 .155l-.658.66a.11.11 0 0 1-.154 0l-.008-.008a.11.11 0 0 1 0-.154l.658-.66a.1.1 0 0 1 .078-.032m.707.66c.038 0 .071.02.092.075a.11.11 0 0 1-.023.117l-7.606 8.08c-3.084 2.024-6.149 4.04-9.222 6.05-.078.051-.17.082-.211-.028a.11.11 0 0 1 .023-.118l7.594-8.08a8381 8381 0 0 1 9.234-6.049.25.25 0 0 1 .12-.046zm-16.824.045a.1.1 0 0 1 .08.026l1.416 1.187a.11.11 0 0 1 .014.157l-.006.005a.11.11 0 0 1-.156.014L3.549 5.057a.11.11 0 0 1-.014-.155l.006-.007a.1.1 0 0 1 .074-.04m17.336.756c.036 0 .072.017.094.05l.004.003a.114.114 0 0 1-.028.158l-.753.53a.11.11 0 0 1-.157-.028l-.004-.004a.114.114 0 0 1 .028-.158l.754-.53a.1.1 0 0 1 .062-.02zm-17.904.002q.031 0 .06.02l.76.531c.05.035.06.103.026.152l-.006.01a.11.11 0 0 1-.153.026l-.76-.532a.11.11 0 0 1-.025-.152l.006-.01a.11.11 0 0 1 .092-.045m-.512.803q.027 0 .053.016l1.596.923a.11.11 0 0 1 .04.153l-.003.006a.11.11 0 0 1-.153.04L2.473 6.63a.11.11 0 0 1-.041-.152l.004-.006a.11.11 0 0 1 .1-.055zm18.932 0a.11.11 0 0 1 .1.055l.001.004a.113.113 0 0 1-.04.154l-1.596.926a.113.113 0 0 1-.155-.041l-.002-.004a.113.113 0 0 1 .041-.155l1.596-.925a.1.1 0 0 1 .055-.014m-19.373.846q.021 0 .043.01l.838.392a.11.11 0 0 1 .052.147l-.004.01a.11.11 0 0 1-.146.052l-.838-.393a.11.11 0 0 1-.053-.146l.004-.01a.11.11 0 0 1 .104-.062m19.81.002a.11.11 0 0 1 .106.062l.002.008a.11.11 0 0 1-.053.146l-.838.393a.11.11 0 0 1-.146-.053l-.004-.008a.11.11 0 0 1 .052-.146l.838-.393a.1.1 0 0 1 .043-.01zm-20.183.88q.02 0 .043.006l1.732.631a.11.11 0 0 1 .067.145l-.002.006a.11.11 0 0 1-.143.066l-1.732-.63a.113.113 0 0 1-.069-.145l.002-.004a.12.12 0 0 1 .102-.074zm20.549 0a.11.11 0 0 1 .11.075l.003.004a.115.115 0 0 1-.069.146l-1.732.629a.11.11 0 0 1-.145-.066l-.001-.006a.113.113 0 0 1 .068-.145l1.732-.63a.1.1 0 0 1 .034-.006zm-20.836.909a.1.1 0 0 1 .033.004l.892.24c.06.016.096.077.08.137l-.002.007a.11.11 0 0 1-.136.079l-.895-.239a.113.113 0 0 1-.078-.138l.002-.006a.11.11 0 0 1 .104-.084m21.13.002a.115.115 0 0 1 .106.084v.004a.11.11 0 0 1-.078.138l-.893.239a.11.11 0 0 1-.138-.079v-.005a.11.11 0 0 1 .078-.14l.892-.237a.1.1 0 0 1 .033-.004m-21.335.93.023.001 1.814.323a.11.11 0 0 1 .09.13v.006a.11.11 0 0 1-.13.09l-1.815-.322a.113.113 0 0 1-.092-.131l.002-.006a.11.11 0 0 1 .108-.092zm21.519.001h.022c.052.002.1.038.109.092v.006c.01.062-.03.12-.092.13l-1.814.321a.113.113 0 0 1-.131-.092v-.005a.113.113 0 0 1 .092-.131zm-21.644.944h.011l.922.084a.11.11 0 0 1 .102.119l-.002.01a.11.11 0 0 1-.121.1l-.922-.083a.11.11 0 0 1-.1-.12v-.009a.11.11 0 0 1 .11-.101m21.779.002h.012a.11.11 0 0 1 .11.101v.008a.11.11 0 0 1-.1.121l-.923.08a.11.11 0 0 1-.12-.101v-.008a.11.11 0 0 1 .1-.121l.92-.08zm-11.82.73L6.091 16.95c2.02-1.324 4.039-2.646 6.066-3.976l-1.095-1.31zm11.87.219c.063 0 .114.05.114.113v.004c0 .063-.05.113-.113.113l-1.844.004a.113.113 0 0 1-.113-.113v-.004c0-.063.05-.113.113-.113zm-21.869.002h1.844c.062 0 .112.05.112.111v.008c0 .062-.05.111-.112.111H1.064a.11.11 0 0 1-.11-.111v-.008a.11.11 0 0 1 .11-.111m.952.875h.011a.11.11 0 0 1 .11.101v.006a.11.11 0 0 1-.102.121l-.922.08a.11.11 0 0 1-.119-.101l-.002-.006a.11.11 0 0 1 .102-.121zm19.955 0h.011l.922.08a.11.11 0 0 1 .102.119v.008a.11.11 0 0 1-.121.101l-.922-.08a.11.11 0 0 1-.102-.119v-.008a.11.11 0 0 1 .11-.101m-18.924.705c.053.001.098.04.107.094l.002.004a.11.11 0 0 1-.092.13l-1.812.32a.113.113 0 0 1-.13-.091v-.004a.115.115 0 0 1 .09-.133l1.811-.318zm17.902 0 .024.002 1.816.32c.061.011.1.07.09.131v.004a.113.113 0 0 1-.131.092l-1.816-.32a.11.11 0 0 1-.09-.131v-.004a.11.11 0 0 1 .107-.094M2.332 14.477a.11.11 0 0 1 .104.082l.002.005a.11.11 0 0 1-.08.137l-.891.24a.11.11 0 0 1-.137-.08l-.002-.006a.11.11 0 0 1 .08-.136l.89-.239a.1.1 0 0 1 .034-.003m19.332 0q.018 0 .035.003l.893.239c.06.016.096.077.08.136l-.002.006a.11.11 0 0 1-.137.078l-.894-.238a.11.11 0 0 1-.078-.137l.002-.005a.11.11 0 0 1 .101-.082m-18.213.517a.11.11 0 0 1 .11.074l.002.004a.11.11 0 0 1-.067.145l-1.732.63a.113.113 0 0 1-.145-.068l-.002-.004a.113.113 0 0 1 .069-.144L3.418 15a.1.1 0 0 1 .033-.006m17.086 0q.022-.002.043.006l1.734.63a.11.11 0 0 1 .067.143l-.002.008a.11.11 0 0 1-.143.067l-1.734-.631a.11.11 0 0 1-.066-.143l.002-.008a.11.11 0 0 1 .1-.072zM2.92 16.117a.11.11 0 0 1 .103.063l.004.01a.11.11 0 0 1-.052.144l-.838.393a.11.11 0 0 1-.147-.055l-.004-.008a.11.11 0 0 1 .053-.146l.838-.391a.1.1 0 0 1 .043-.01m18.158 0a.1.1 0 0 1 .043.01l.838.39c.056.027.08.093.055.149l-.002.004a.11.11 0 0 1-.149.055l-.838-.391a.11.11 0 0 1-.054-.148l.002-.004a.11.11 0 0 1 .105-.065m-16.957.315c.04-.001.078.02.1.056l.004.004a.11.11 0 0 1-.041.153l-1.596.921a.113.113 0 0 1-.154-.04l-.002-.005a.113.113 0 0 1 .04-.154l1.596-.922a.1.1 0 0 1 .053-.013m15.756 0q.027 0 .053.013l1.597.924a.11.11 0 0 1 .041.152l-.002.004a.11.11 0 0 1-.152.041l-1.598-.921a.113.113 0 0 1-.04-.155l.001-.002a.11.11 0 0 1 .1-.056m.328 1.193a.1.1 0 0 1 .06.021l.758.534c.05.035.061.102.026.152l-.004.008a.11.11 0 0 1-.154.027l-.756-.535a.11.11 0 0 1-.028-.152l.006-.008a.11.11 0 0 1 .092-.047m-16.412.002c.035 0 .072.016.094.047l.004.008a.11.11 0 0 1-.028.152l-.756.531a.11.11 0 0 1-.152-.025l-.006-.008a.11.11 0 0 1 .028-.152l.755-.534a.1.1 0 0 1 .061-.019m15.162.102a.1.1 0 0 1 .082.025l1.414 1.187a.11.11 0 0 1 .014.157l-.004.004a.113.113 0 0 1-.158.013L18.89 17.93a.11.11 0 0 1-.014-.157l.004-.005a.1.1 0 0 1 .074-.04zm-12.812 1.12a.1.1 0 0 1 .08.026l.007.008a.11.11 0 0 1 .014.154L5.06 20.451a.11.11 0 0 1-.155.012l-.008-.006a.11.11 0 0 1-.013-.154l1.185-1.414a.1.1 0 0 1 .075-.04zm11.703 0c.032 0 .065.015.088.042l1.181 1.41c.04.048.035.12-.013.16l-.002.002a.114.114 0 0 1-.16-.014l-1.182-1.41a.114.114 0 0 1 .013-.16l.002-.002a.12.12 0 0 1 .073-.027zm-12.928.114q.042 0 .074.031l.014.012a.107.107 0 0 1 0 .15l-.662.66a.105.105 0 0 1-.149 0l-.011-.011a.105.105 0 0 1 0-.149l.66-.662a.1.1 0 0 1 .074-.031m14.164 0q.041 0 .074.031l.66.662a.106.106 0 0 1 0 .15l-.011.012a.106.106 0 0 1-.15-.002l-.66-.66a.106.106 0 0 1 .001-.15l.01-.012a.1.1 0 0 1 .076-.031m-11.627.797a.1.1 0 0 1 .05.015l.007.004a.11.11 0 0 1 .04.15l-.921 1.598a.11.11 0 0 1-.15.041l-.008-.004a.11.11 0 0 1-.04-.152l.922-1.596a.11.11 0 0 1 .1-.056m9.088.002a.11.11 0 0 1 .1.054l.925 1.596a.113.113 0 0 1-.04.154h-.005a.11.11 0 0 1-.152-.039l-.926-1.595a.113.113 0 0 1 .041-.155l.004-.002a.1.1 0 0 1 .053-.013m-10.285.324q.032 0 .062.021l.004.002a.113.113 0 0 1 .028.157l-.53.755a.11.11 0 0 1-.156.028l-.004-.002a.11.11 0 0 1-.027-.156l.53-.756a.11.11 0 0 1 .093-.05zm11.484.002c.036 0 .072.015.094.047l.53.756c.035.05.023.12-.028.156l-.004.002a.11.11 0 0 1-.156-.028l-.53-.755a.11.11 0 0 1 .028-.157l.004-.002a.1.1 0 0 1 .062-.02zm-8.863.342a.1.1 0 0 1 .043.006l.012.005c.056.02.084.081.064.137l-.633 1.74a.105.105 0 0 1-.136.063l-.014-.004a.106.106 0 0 1-.065-.137l.633-1.74a.11.11 0 0 1 .096-.07m6.232 0a.11.11 0 0 1 .106.07l.633 1.738a.107.107 0 0 1-.065.137l-.015.006a.107.107 0 0 1-.137-.065L15 20.578a.107.107 0 0 1 .064-.137l.014-.005a.1.1 0 0 1 .033-.006m-4.695.41q.011 0 .021.002l.006.002c.062.01.101.067.09.129l-.318 1.812a.113.113 0 0 1-.131.092l-.004-.002a.11.11 0 0 1-.092-.129l.32-1.812a.11.11 0 0 1 .108-.094m3.146.002h.022a.11.11 0 0 1 .107.092l.32 1.812a.11.11 0 0 1-.091.131l-.004.002a.113.113 0 0 1-.13-.092l-.321-1.812a.113.113 0 0 1 .092-.131zm-5.79.119a.1.1 0 0 1 .042.01l.004.002a.114.114 0 0 1 .055.15l-.393.834a.11.11 0 0 1-.148.055l-.004-.002a.11.11 0 0 1-.055-.149l.393-.836a.11.11 0 0 1 .105-.064zm8.458 0a.11.11 0 0 1 .104.062l.39.84a.11.11 0 0 1-.052.147l-.008.004a.11.11 0 0 1-.146-.055l-.391-.838a.11.11 0 0 1 .053-.146l.008-.004a.1.1 0 0 1 .042-.01m-4.236.018H12c.063 0 .115.05.115.113l.002 1.84c0 .063-.05.113-.113.113h-.006a.113.113 0 0 1-.113-.113l-.004-1.838c0-.063.05-.115.113-.115m-2.592.578q.016-.001.034.004l.005.002a.11.11 0 0 1 .079.136l-.24.893a.11.11 0 0 1-.137.078l-.006-.002a.11.11 0 0 1-.078-.137l.24-.89a.11.11 0 0 1 .103-.084m5.196.002a.11.11 0 0 1 .103.082l.24.89a.11.11 0 0 1-.078.137l-.006.002a.11.11 0 0 1-.136-.078l-.24-.89a.11.11 0 0 1 .078-.138l.005-.002a.1.1 0 0 1 .034-.003m-3.475.302h.01l.008.002c.061.006.107.06.101.121l-.08.92a.11.11 0 0 1-.121.102h-.008a.11.11 0 0 1-.1-.121l.08-.922a.11.11 0 0 1 .11-.102m1.736 0h.02a.11.11 0 0 1 .107.102l.08.924a.11.11 0 0 1-.101.119l-.008.002a.11.11 0 0 1-.12-.102l-.08-.924a.11.11 0 0 1 .102-.12z"/>
    </symbol>
    <symbol id="opera" fill="#FF1B2D" viewBox="0 0 24 24">
      <path
        d="M8.051 5.238c-1.328 1.566-2.186 3.883-2.246 6.48v.564c.061 2.598.918 4.912 2.246 6.479 1.721 2.236 4.279 3.654 7.139 3.654a8.65 8.65 0 0 0 4.807-1.471 11.93 11.93 0 0 1-8.567 3.042C5.064 23.689 0 18.436 0 12 0 5.371 5.373 0 12 0h.045a11.97 11.97 0 0 1 7.953 3.055c-1.408-.93-3.051-1.471-4.81-1.471-2.858 0-5.417 1.42-7.14 3.654zM24 12c0 3.556-1.545 6.748-4.002 8.945-3.078 1.5-5.946.451-6.896-.205 3.023-.664 5.307-4.32 5.307-8.74 0-4.422-2.283-8.075-5.307-8.74.949-.654 3.818-1.703 6.896-.205A11.96 11.96 0 0 1 24 12"/>
    </symbol>
    <symbol id="brave" fill="#FB542B" viewBox="0 0 24 24">
      <path
        d="m15.68 0 2.096 2.38s1.84-.512 2.709.358c.868.87 1.584 1.638 1.584 1.638l-.562 1.381.715 2.047s-2.104 7.98-2.35 8.955c-.486 1.919-.818 2.66-2.198 3.633a186 186 0 0 1-4.293 2.916c-.409.256-.92.692-1.38.692s-.97-.436-1.38-.692a186 186 0 0 1-4.293-2.916c-1.38-.973-1.712-1.714-2.197-3.633-.247-.975-2.351-8.955-2.351-8.955l.715-2.047-.562-1.381s.716-.768 1.585-1.638c.868-.87 2.708-.358 2.708-.358L8.321 0h7.36zm-3.679 14.936c-.14 0-1.038.317-1.758.69s-1.242.637-1.409.742-.065.301.087.409 2.194 1.69 2.393 1.866c.198.175.489.464.687.464s.49-.29.688-.464 2.24-1.759 2.392-1.866.254-.305.087-.41-.689-.368-1.41-.741c-.72-.373-1.617-.69-1.757-.69m0-11.278s-.409.001-1.022.206-1.278.46-1.584.46-2.581-.434-2.581-.434-2.695 3.262-2.695 3.959.339.881.68 1.243l2.02 2.149c.192.203.59.511.356 1.066-.235.555-.58 1.26-.196 1.977.384.716 1.042 1.194 1.464 1.115.421-.08 1.412-.598 1.776-.834.364-.237 1.518-1.19 1.518-1.554s-1.193-1.02-1.413-1.168c-.22-.15-1.226-.725-1.247-.95-.02-.227-.012-.293.284-.851.297-.559.831-1.304.742-1.8-.089-.495-.95-.753-1.565-.986s-1.799-.671-1.947-.74-.11-.133.339-.175c.448-.043 1.719-.212 2.292-.052s1.552.403 1.632.532c.079.13.149.134.067.579s-.5 2.581-.541 2.96c-.04.38-.12.63.288.724.409.094 1.097.256 1.333.256s.924-.162 1.333-.256c.408-.093.329-.344.288-.723-.04-.38-.46-2.516-.541-2.961s-.012-.45.067-.579c.08-.129 1.059-.372 1.632-.532s1.845.009 2.292.052c.449.042.487.107.339.175-.148.069-1.332.508-1.947.74-.615.233-1.476.49-1.565.986-.09.496.445 1.241.742 1.8s.304.624.284.85-1.026.802-1.247.95c-.22.15-1.413.804-1.413 1.169 0 .364 1.154 1.317 1.518 1.554.364.236 1.355.755 1.776.834s1.08-.4 1.464-1.115c.384-.716.039-1.422-.195-1.977s.163-.863.355-1.066l2.02-2.149c.341-.362.68-.546.68-1.243s-2.695-3.96-2.695-3.96-2.274.436-2.58.436-.972-.256-1.585-.461-1.022-.206-1.022-.206"/>
    </symbol>
    <symbol id="vivaldi" fill="#EF3939" viewBox="0 0 24 24">
      <path
        d="M12 0C6.75 0 3.817 0 1.912 1.904.007 3.81 0 6.75 0 12s0 8.175 1.912 10.08C3.825 23.985 6.75 24 12 24s8.183 0 10.088-1.904C23.993 20.19 24 17.25 24 12s0-8.175-1.912-10.08C20.175.015 17.25 0 12 0m-.168 3a9 9 0 0 1 6.49 2.648 9 9 0 0 1 0 12.704A9 9 0 1 1 11.832 3M7.568 7.496a1 1 0 0 0-.142.004A1.5 1.5 0 0 0 6.21 9.75l1.701 3c.93 1.582 1.839 3.202 2.791 4.822a1.42 1.42 0 0 0 1.41.75 1.5 1.5 0 0 0 1.223-.81l4.447-7.762A1.56 1.56 0 0 0 18 8.768a1.5 1.5 0 1 0-2.828.914 2.5 2.5 0 0 1 .256 1.119v.246a2.393 2.393 0 0 1-2.52 2.13 2.35 2.35 0 0 1-1.965-1.214c-.307-.51-.6-1.035-.9-1.553-.42-.72-.826-1.41-1.246-2.16a1.43 1.43 0 0 0-1.229-.754"/>
    </symbol>
  </defs>
</svg>
