<svg>
  <symbol id="github" xmlns="http://www.w3.org/2000/svg" viewBox="0 0 24 24"><path fill="currentColor" d="M12 2.247a10 10 0 0 0-3.162 19.487c.5.088.687-.212.687-.475 0-.237-.012-1.025-.012-1.862-2.513.462-3.163-.613-3.363-1.175a3.636 3.636 0 0 0-1.025-1.413c-.35-.187-.85-.65-.013-.662a2.001 2.001 0 0 1 1.538 1.025 2.137 2.137 0 0 0 2.912.825 2.104 2.104 0 0 1 .638-1.338c-2.225-.25-4.55-1.112-4.55-4.937a3.892 3.892 0 0 1 1.025-2.688 3.594 3.594 0 0 1 .1-2.65s.837-.262 2.75 1.025a9.427 9.427 0 0 1 5 0c1.912-1.3 2.75-1.025 2.75-1.025a3.593 3.593 0 0 1 .1 2.65 3.869 3.869 0 0 1 1.025 2.688c0 3.837-2.338 4.687-4.562 4.937a2.368 2.368 0 0 1 .674 1.85c0 1.338-.012 2.413-.012 2.75 0 .263.187.575.687.475A10.005 10.005 0 0 0 12 2.247"/></symbol>
  <symbol id="sun" xmlns="http://www.w3.org/2000/svg" viewBox="0 0 24 24"><path fill="currentColor" d="m5.64 17-.71.71a1 1 0 0 0 0 1.41 1 1 0 0 0 1.41 0l.71-.71A1 1 0 0 0 5.64 17M5 12a1 1 0 0 0-1-1H3a1 1 0 0 0 0 2h1a1 1 0 0 0 1-1m7-7a1 1 0 0 0 1-1V3a1 1 0 0 0-2 0v1a1 1 0 0 0 1 1M5.64 7.05a1 1 0 0 0 .7.29 1 1 0 0 0 .71-.29 1 1 0 0 0 0-1.41l-.71-.71a1 1 0 0 0-1.41 1.41Zm12 .29a1 1 0 0 0 .7-.29l.71-.71a1 1 0 1 0-1.41-1.41l-.64.71a1 1 0 0 0 0 1.41 1 1 0 0 0 .66.29ZM21 11h-1a1 1 0 0 0 0 2h1a1 1 0 0 0 0-2m-9 8a1 1 0 0 0-1 1v1a1 1 0 0 0 2 0v-1a1 1 0 0 0-1-1m6.36-2A1 1 0 0 0 17 18.36l.71.71a1 1 0 0 0 1.41 0 1 1 0 0 0 0-1.41ZM12 6.5a5.5 5.5 0 1 0 5.5 5.5A5.51 5.51 0 0 0 12 6.5m0 9a3.5 3.5 0 1 1 3.5-3.5 3.5 3.5 0 0 1-3.5 3.5"/></symbol>
  <symbol id="moon" xmlns="http://www.w3.org/2000/svg" viewBox="0 0 24 24"><path fill="currentColor" d="M21.64 13a1 1 0 0 0-1.05-.14 8.05 8.05 0 0 1-3.37.73 8.15 8.15 0 0 1-8.14-8.1 8.59 8.59 0 0 1 .25-2A1 1 0 0 0 8 2.36a10.14 10.14 0 1 0 14 11.69 1 1 0 0 0-.36-1.05m-9.5 6.69A8.14 8.14 0 0 1 7.08 5.22v.27a10.15 10.15 0 0 0 10.14 10.14 9.79 9.79 0 0 0 2.1-.22 8.11 8.11 0 0 1-7.18 4.32Z"/></symbol>
  <symbol id="auto" xmlns="http://www.w3.org/2000/svg" viewBox="0 0 24 24"><path fill="currentColor" d="M12.83 13.45a1 1 0 0 0-1.66 0l-4 6a1 1 0 0 0 0 1A1 1 0 0 0 8 21h8a1 1 0 0 0 .88-.53 1 1 0 0 0-.05-1ZM9.87 19 12 15.8l2.13 3.2ZM19 3H5a3 3 0 0 0-3 3v9a3 3 0 0 0 3 3h.85a1 1 0 1 0 0-2H5a1 1 0 0 1-1-1V6a1 1 0 0 1 1-1h14a1 1 0 0 1 1 1v9a1 1 0 0 1-1 1h-.85a1 1 0 0 0 0 2H19a3 3 0 0 0 3-3V6a3 3 0 0 0-3-3"/></symbol>
  <symbol id="user" xmlns="http://www.w3.org/2000/svg" viewBox="0 0 24 24"><path fill="currentColor" d="M12 2a10 10 0 0 0-7.35 16.76 10 10 0 0 0 14.7 0A10 10 0 0 0 12 2m0 18a8 8 0 0 1-5.55-2.25 6 6 0 0 1 11.1 0A8 8 0 0 1 12 20m-2-10a2 2 0 1 1 2 2 2 2 0 0 1-2-2m8.91 6A8 8 0 0 0 15 12.62a4 4 0 1 0-6 0A8 8 0 0 0 5.09 16 7.92 7.92 0 0 1 4 12a8 8 0 0 1 16 0 7.92 7.92 0 0 1-1.09 4"/></symbol>
  <symbol id="setting" xmlns="http://www.w3.org/2000/svg" viewBox="0 0 24 24"><path fill="currentColor" d="M19.9 12.66a1 1 0 0 1 0-1.32l1.28-1.44a1 1 0 0 0 .12-1.17l-2-3.46a1 1 0 0 0-1.07-.48l-1.88.38a1 1 0 0 1-1.15-.66l-.61-1.83a1 1 0 0 0-.95-.68h-4a1 1 0 0 0-1 .68l-.56 1.83a1 1 0 0 1-1.15.66L5 4.79a1 1 0 0 0-1 .48L2 8.73a1 1 0 0 0 .1 1.17l1.27 1.44a1 1 0 0 1 0 1.32L2.1 14.1a1 1 0 0 0-.1 1.17l2 3.46a1 1 0 0 0 1.07.48l1.88-.38a1 1 0 0 1 1.15.66l.61 1.83a1 1 0 0 0 1 .68h4a1 1 0 0 0 .95-.68l.61-1.83a1 1 0 0 1 1.15-.66l1.88.38a1 1 0 0 0 1.07-.48l2-3.46a1 1 0 0 0-.12-1.17ZM18.41 14l.8.9-1.28 2.22-1.18-.24a3 3 0 0 0-3.45 2L12.92 20h-2.56L10 18.86a3 3 0 0 0-3.45-2l-1.18.24-1.3-2.21.8-.9a3 3 0 0 0 0-4l-.8-.9 1.28-2.2 1.18.24a3 3 0 0 0 3.45-2L10.36 4h2.56l.38 1.14a3 3 0 0 0 3.45 2l1.18-.24 1.28 2.22-.8.9a3 3 0 0 0 0 3.98m-6.77-6a4 4 0 1 0 4 4 4 4 0 0 0-4-4m0 6a2 2 0 1 1 2-2 2 2 0 0 1-2 2"/></symbol>
  <symbol id="dashboard" xmlns="http://www.w3.org/2000/svg" viewBox="0 0 24 24"><path fill="currentColor" d="M19.088 4.955c-.007-.008-.01-.019-.017-.026s-.018-.01-.026-.018a9.979 9.979 0 0 0-14.09 0c-.008.008-.018.01-.026.018s-.01.018-.017.026a10 10 0 1 0 14.176 0M12 20a7.985 7.985 0 0 1-6.235-3H9.78a2.964 2.964 0 0 0 4.44 0h4.015A7.985 7.985 0 0 1 12 20m-1-5a1 1 0 1 1 1 1 1.001 1.001 0 0 1-1-1m8.41.002L19.4 15H15a2.995 2.995 0 0 0-2-2.816V9a1 1 0 0 0-2 0v3.184A2.995 2.995 0 0 0 9 15H4.6l-.01.002A7.93 7.93 0 0 1 4.07 13H5a1 1 0 0 0 0-2h-.93a7.951 7.951 0 0 1 1.619-3.898l.654.655a1 1 0 1 0 1.414-1.414l-.654-.655A7.952 7.952 0 0 1 11 4.07V5a1 1 0 0 0 2 0v-.93a7.952 7.952 0 0 1 3.897 1.618l-.654.655a1 1 0 1 0 1.414 1.414l.654-.655A7.951 7.951 0 0 1 19.931 11H19a1 1 0 0 0 0 2h.93a7.93 7.93 0 0 1-.52 2.002"/></symbol>
  <symbol id="menu" xmlns="http://www.w3.org/2000/svg" viewBox="0 0 24 24"><path fill="currentColor" d="M3 8h18a1 1 0 0 0 0-2H3a1 1 0 0 0 0 2m18 8H3a1 1 0 0 0 0 2h18a1 1 0 0 0 0-2m0-5H3a1 1 0 0 0 0 2h18a1 1 0 0 0 0-2"/></symbol>
  <symbol id="close" xmlns="http://www.w3.org/2000/svg" viewBox="0 0 24 24"><path fill="currentColor" d="m13.41 12 4.3-4.29a1 1 0 1 0-1.42-1.42L12 10.59l-4.29-4.3a1 1 0 0 0-1.42 1.42l4.3 4.29-4.3 4.29a1 1 0 0 0 0 1.42 1 1 0 0 0 1.42 0l4.29-4.3 4.29 4.3a1 1 0 0 0 1.42 0 1 1 0 0 0 0-1.42Z"/></symbol>
  <symbol id="logout" xmlns="http://www.w3.org/2000/svg" viewBox="0 0 24 24"><path fill="currentColor" d="m12.59 13-2.3 2.29a1 1 0 0 0 0 1.42 1 1 0 0 0 1.42 0l4-4a1 1 0 0 0 .21-.33 1 1 0 0 0 0-.76 1 1 0 0 0-.21-.33l-4-4a1 1 0 1 0-1.42 1.42l2.3 2.29H3a1 1 0 0 0 0 2ZM12 2a10 10 0 0 0-9 5.55 1 1 0 0 0 1.8.9A8 8 0 1 1 12 20a7.93 7.93 0 0 1-7.16-4.45 1 1 0 0 0-1.8.9A10 10 0 1 0 12 2"/></symbol>
  <symbol id="external-link" xmlns="http://www.w3.org/2000/svg" viewBox="0 0 24 24"><path fill="none" stroke="currentColor" stroke-linecap="round" stroke-linejoin="round" stroke-width="2" d="M10 6H6a2 2 0 0 0-2 2v10a2 2 0 0 0 2 2h10a2 2 0 0 0 2-2v-4M14 4h6m0 0v6m0-6L10 14"/></symbol>
  <symbol id="clipboard" xmlns="http://www.w3.org/2000/svg" viewBox="0 0 24 24"><g fill="none" stroke="currentColor" stroke-linecap="round" stroke-linejoin="round" stroke-width="2"><path d="M9 5H7a2 2 0 0 0-2 2v12a2 2 0 0 0 2 2h10a2 2 0 0 0 2-2V7a2 2 0 0 0-2-2h-2"/><path d="M9 5a2 2 0 0 1 2-2h2a2 2 0 0 1 2 2v0a2 2 0 0 1-2 2h-2a2 2 0 0 1-2-2"/></g></symbol>
  <symbol id="clipboard-check" xmlns="http://www.w3.org/2000/svg" viewBox="0 0 24 24"><g fill="none" stroke="currentColor" stroke-linecap="round" stroke-linejoin="round" stroke-width="2"><path d="M9 5H7a2 2 0 0 0-2 2v12a2 2 0 0 0 2 2h10a2 2 0 0 0 2-2V7a2 2 0 0 0-2-2h-2"/><path d="M9 5a2 2 0 0 1 2-2h2a2 2 0 0 1 2 2v0a2 2 0 0 1-2 2h-2a2 2 0 0 1-2-2m0 9l2 2l4-4"/></g></symbol>
  <symbol id="link" xmlns="http://www.w3.org/2000/svg" viewBox="0 0 24 24"><g fill="none" stroke="currentColor" stroke-linecap="round" stroke-width="2"><path d="m12 17-1.5 1.5a3.536 3.536 0 0 1-5 0v0a3.536 3.536 0 0 1 0-5l3-3a3.536 3.536 0 0 1 5 0v0"/><path d="m12 7 1.5-1.5a3.536 3.536 0 0 1 5 0v0a3.536 3.536 0 0 1 0 5l-3 3a3.536 3.536 0 0 1-5 0v0"/></g></symbol>
  <symbol id="plus" xmlns="http://www.w3.org/2000/svg" viewBox="0 0 24 24"><path fill="currentColor" d="M19 11h-6V5a1 1 0 0 0-2 0v6H5a1 1 0 0 0 0 2h6v6a1 1 0 0 0 2 0v-6h6a1 1 0 0 0 0-2"/></symbol>
  <symbol id="status" xmlns="http://www.w3.org/2000/svg" viewBox="0 0 24 24"><path fill="currentColor" d="M21 20h-1V5a1 1 0 0 0-2 0v15h-2v-7a1 1 0 0 0-2 0v7h-2V9a1 1 0 0 0-2 0v11H8v-3a1 1 0 0 0-2 0v3H4V3a1 1 0 0 0-2 0v18a1 1 0 0 0 1 1h18a1 1 0 0 0 0-2"/></symbol>
</svg>
