<svg>
  <symbol id="github" xmlns="http://www.w3.org/2000/svg" fill="currentColor" viewBox="2 2 20 20"><path d="M12.001 2c-5.525 0-10 4.475-10 10a9.994 9.994 0 0 0 6.837 9.488c.5.087.688-.213.688-.476 0-.237-.013-1.024-.013-1.862-2.512.463-3.162-.612-3.362-1.175-.113-.288-.6-1.175-1.025-1.413-.35-.187-.85-.65-.013-.662.788-.013 1.35.725 1.538 1.025.9 1.512 2.337 1.087 2.912.825.088-.65.35-1.087.638-1.337-2.225-.25-4.55-1.113-4.55-4.938 0-1.088.387-1.987 1.025-2.688-.1-.25-.45-1.275.1-2.65 0 0 .837-.262 2.75 1.026a9.28 9.28 0 0 1 2.5-.338c.85 0 1.7.112 2.5.337 1.913-1.3 2.75-1.024 2.75-1.024.55 1.375.2 2.4.1 2.65.637.7 1.025 1.587 1.025 2.687 0 3.838-2.337 4.688-4.563 4.938.363.312.676.912.676 1.85 0 1.337-.013 2.412-.013 2.75 0 .262.188.574.688.474A10.016 10.016 0 0 0 22 12c0-5.525-4.475-10-10-10Z"/></symbol>
  <symbol id="sun" xmlns="http://www.w3.org/2000/svg" fill="currentColor" viewBox="1 1 22 22"><path d="M12 18a6 6 0 1 1 0-12 6 6 0 0 1 0 12Zm0-2a4 4 0 1 0 0-8 4 4 0 0 0 0 8ZM11 1h2v3h-2V1Zm0 19h2v3h-2v-3ZM3.515 4.929l1.414-1.414L7.05 5.636 5.636 7.05 3.515 4.93ZM16.95 18.364l1.414-1.414 2.121 2.121-1.414 1.414-2.121-2.121Zm2.121-14.85 1.414 1.415-2.121 2.121-1.414-1.414 2.121-2.121ZM5.636 16.95l1.414 1.414-2.121 2.121-1.414-1.414 2.121-2.121ZM23 11v2h-3v-2h3ZM4 11v2H1v-2h3Z"/></symbol>
  <symbol id="moon" xmlns="http://www.w3.org/2000/svg" fill="currentColor" viewBox="1 1 22 22"><path d="M10 7a7 7 0 0 0 12 4.9v.1c0 5.523-4.477 10-10 10S2 17.523 2 12 6.477 2 12 2h.1A6.98 6.98 0 0 0 10 7Zm-6 5a8 8 0 0 0 15.062 3.762A9 9 0 0 1 8.238 4.938 7.999 7.999 0 0 0 4 12Z"/></symbol>
  <symbol id="auto" xmlns="http://www.w3.org/2000/svg"  fill="currentColor" viewBox="1 1 22 22"><path d="m11 7-3.2 9h1.9l.7-2h3.2l.7 2h1.9L13 7h-2zm-.15 5.65L12 9l1.15 3.65h-2.3zM20 8.69V4h-4.69L12 .69 8.69 4H4v4.69L.69 12 4 15.31V20h4.69L12 23.31 15.31 20H20v-4.69L23.31 12 20 8.69zm-2 5.79V18h-3.52L12 20.48 9.52 18H6v-3.52L3.52 12 6 9.52V6h3.52L12 3.52 14.48 6H18v3.52L20.48 12 18 14.48z"/></symbol>
  <symbol id="user" xmlns="http://www.w3.org/2000/svg" viewBox="2 2 20 20"><g fill="none" stroke="currentColor" stroke-linecap="round" stroke-linejoin="round" stroke-width="2"><path d="M3 12a9 9 0 1 0 18 0 9 9 0 1 0-18 0"/><path d="M9 10a3 3 0 1 0 6 0 3 3 0 1 0-6 0m-2.832 8.849A4 4 0 0 1 10 16h4a4 4 0 0 1 3.834 2.855"/></g></symbol>
  <symbol id="setting" xmlns="http://www.w3.org/2000/svg" viewBox="2.21 2 19.59 20"><g fill="none" stroke="currentColor" stroke-width="2"><path stroke-linecap="round" stroke-linejoin="round" d="M14 21h-4l-.551-2.48a6.991 6.991 0 0 1-1.819-1.05l-2.424.763-2-3.464 1.872-1.718a7.055 7.055 0 0 1 0-2.1L3.206 9.232l2-3.464 2.424.763A6.992 6.992 0 0 1 9.45 5.48L10 3h4l.551 2.48a6.992 6.992 0 0 1 1.819 1.05l2.424-.763 2 3.464-1.872 1.718a7.05 7.05 0 0 1 0 2.1l1.872 1.718-2 3.464-2.424-.763a6.99 6.99 0 0 1-1.819 1.052z"/><circle cx="12" cy="12" r="3"/></g></symbol>
  <symbol id="dashboard" xmlns="http://www.w3.org/2000/svg" viewBox="2 2 20 20"><path fill="currentColor" d="M4 13h6c.55 0 1-.45 1-1V4c0-.55-.45-1-1-1H4c-.55 0-1 .45-1 1v8c0 .55.45 1 1 1m0 8h6c.55 0 1-.45 1-1v-4c0-.55-.45-1-1-1H4c-.55 0-1 .45-1 1v4c0 .55.45 1 1 1m10 0h6c.55 0 1-.45 1-1v-8c0-.55-.45-1-1-1h-6c-.55 0-1 .45-1 1v8c0 .55.45 1 1 1M13 4v4c0 .55.45 1 1 1h6c.55 0 1-.45 1-1V4c0-.55-.45-1-1-1h-6c-.55 0-1 .45-1 1"/></symbol>
  <symbol id="menu" xmlns="http://www.w3.org/2000/svg" viewBox="2 2 20 20"><path fill="none" stroke="currentColor" stroke-linecap="round" stroke-linejoin="round" stroke-width="2" d="M6 8h12M6 12h12M6 16h12"/></symbol>
  <symbol id="close" xmlns="http://www.w3.org/2000/svg" viewBox="2 2 20 20"><path fill="none" stroke="currentColor" stroke-linecap="round" stroke-linejoin="round" stroke-width="2" d="M12 12 7 7m5 5 5 5m-5-5 5-5m-5 5-5 5"/></symbol>
  <symbol id="logout" xmlns="http://www.w3.org/2000/svg" viewBox="1 1 22 22"><path fill="currentColor" d="M5 21q-.825 0-1.412-.587T3 19V5q0-.825.588-1.412T5 3h6q.425 0 .713.288T12 4q0 .425-.288.713T11 5H5v14h6q.425 0 .713.288T12 20q0 .425-.288.713T11 21zm12.175-8H10q-.425 0-.712-.288T9 12q0-.425.288-.712T10 11h7.175L15.3 9.125q-.275-.275-.275-.675t.275-.7q.275-.3.7-.313t.725.288L20.3 11.3q.3.3.3.7t-.3.7l-3.575 3.575q-.3.3-.712.288t-.713-.313q-.275-.3-.262-.712t.287-.688z"/></symbol>
  <symbol id="external-link" xmlns="http://www.w3.org/2000/svg" viewBox="0 0 24 24"><path fill="none" stroke="currentColor" stroke-linecap="round" stroke-linejoin="round" stroke-width="2" d="M10 6H6a2 2 0 0 0-2 2v10a2 2 0 0 0 2 2h10a2 2 0 0 0 2-2v-4M14 4h6m0 0v6m0-6L10 14"/></symbol>
  <symbol id="clipboard" xmlns="http://www.w3.org/2000/svg" viewBox="0 0 24 24"><g fill="none" stroke="currentColor" stroke-linecap="round" stroke-linejoin="round" stroke-width="2"><path d="M9 5H7a2 2 0 0 0-2 2v12a2 2 0 0 0 2 2h10a2 2 0 0 0 2-2V7a2 2 0 0 0-2-2h-2"/><path d="M9 5a2 2 0 0 1 2-2h2a2 2 0 0 1 2 2v0a2 2 0 0 1-2 2h-2a2 2 0 0 1-2-2"/></g></symbol>
  <symbol id="clipboard-check" xmlns="http://www.w3.org/2000/svg" viewBox="0 0 24 24"><g fill="none" stroke="currentColor" stroke-linecap="round" stroke-linejoin="round" stroke-width="2"><path d="M9 5H7a2 2 0 0 0-2 2v12a2 2 0 0 0 2 2h10a2 2 0 0 0 2-2V7a2 2 0 0 0-2-2h-2"/><path d="M9 5a2 2 0 0 1 2-2h2a2 2 0 0 1 2 2v0a2 2 0 0 1-2 2h-2a2 2 0 0 1-2-2m0 9l2 2l4-4"/></g></symbol>
  <symbol id="link" xmlns="http://www.w3.org/2000/svg" viewBox="0 0 24 24"><g fill="none" stroke="currentColor" stroke-linecap="round" stroke-width="2"><path d="m12 17-1.5 1.5a3.536 3.536 0 0 1-5 0v0a3.536 3.536 0 0 1 0-5l3-3a3.536 3.536 0 0 1 5 0v0"/><path d="m12 7 1.5-1.5a3.536 3.536 0 0 1 5 0v0a3.536 3.536 0 0 1 0 5l-3 3a3.536 3.536 0 0 1-5 0v0"/></g></symbol>
  <symbol id="plus" xmlns="http://www.w3.org/2000/svg" viewBox="0 0 24 24"><path fill="none" stroke="currentColor" stroke-linecap="round" stroke-linejoin="round" stroke-width="1.5" d="M12 4.5v15m7.5-7.5h-15"/></symbol>
</svg>
