<svg xmlns="http://www.w3.org/2000/svg" width="48" height="48"><linearGradient id="a" x1="24" x2="24" y1=".964" y2="47.027" gradientUnits="userSpaceOnUse"><stop offset=".081" stop-color="#5fc7f7"/><stop offset="1" stop-color="#386fea"/></linearGradient><path fill="url(#a)" d="M11.255.964h25.49c5.681 0 10.286 4.606 10.286 10.286v25.491c0 5.68-4.605 10.286-10.286 10.286h-25.49C5.574 47.027.969 42.422.969 36.74V11.25C.969 5.568 5.574.963 11.255.963"/><path fill="#fff" fill-rule="evenodd" d="M32.096 37.025c2.601 0 4.803-2.151 4.803-4.753s-2.202-4.753-4.803-4.753c-2.652 0-4.703 2.151-4.703 4.753s2.05 4.753 4.703 4.753m-21.013-.6h7.854l1.952-10.707c1.05-5.754 4.753-6.404 7.804-6.404h2.152l1.5-8.305c-4.002 0-7.454 2.101-9.955 5.153l.05-4.553h-7.005Z"/></svg>