<svg xmlns="http://www.w3.org/2000/svg" width="512" height="512"><linearGradient id="a" x1="256" x2="256" y1=".049" y2="511.855" gradientUnits="userSpaceOnUse"><stop offset=".081" stop-color="#5fc7f7"/><stop offset="1" stop-color="#386fea"/></linearGradient><path fill="url(#a)" d="M114.384.049h283.232c63.119 0 114.287 51.168 114.287 114.286v283.232c0 63.12-51.168 114.288-114.287 114.288H114.384C51.265 511.855.097 460.686.097 397.567V114.335C.097 51.216 51.265.05 114.384.05"/><path fill="#fff" fill-rule="evenodd" d="M345.95 400.72c28.908 0 53.367-23.903 53.367-52.81s-24.46-52.81-53.366-52.81c-29.463 0-52.255 23.903-52.255 52.81s22.792 52.81 52.255 52.81m-233.479-6.67h87.277l21.68-118.963c11.674-63.929 52.81-71.156 86.72-71.156h23.904l16.677-92.28c-44.472 0-82.829 23.349-110.624 57.259l.556-50.587h-77.826Z"/></svg>